# xmcd
#
# Track frame offsets:
#	150
#	17797
#	29697
#	44457
#	58450
#	69827
#	81110
#	95285
#	109820
#	122065
#	137900
#	155517
#	167465
#	182240
#	196270
#	207680
#	218947
#	233102
#	247615
#	259797
#
# Disc length: 3873 seconds
#
# Revision: 2
# Processed by: cddbd v1.5.1PL2 Copyright (c) Steve Scherf et al.
# Submitted via: audiograbber 1.83.01
#
DISCID=200f1f14
DTITLE=Roger Whittaker - THMP003
DYEAR=1900
DGENRE=Karaoke
TTITLE0=Whittaker, Roger - The Last Farewell (Vocals)
TTITLE1=Whittaker, Roger - Blues Eyes Cryin In The Rain (Vocals)
TTITLE2=Whittaker, Roger - Durham Town (Vocals)
TTITLE3=Whittaker, Roger - There Goes My Everything (Vocals)
TTITLE4=Whittaker, Roger - I Love You Because (Vocals)
TTITLE5=Whittaker, Roger - New World In The Morning (Vocals)
TTITLE6=Whittaker, Roger - Have I Told You Lately That I Love You (Vocals)
TTITLE7=Whittaker, Roger - I'd Fall In Love Tonight (Vocals)
TTITLE8=Whittaker, Roger - But She Loves Me
TTITLE9=Whittaker, Roger - Keep On Chasin' Rainbows
TTITLE10=Whittaker, Roger - The Last Farewell
TTITLE11=Whittaker, Roger - Blues Eyes Cryin In The Rain
TTITLE12=Whittaker, Roger - Durham Town
TTITLE13=Whittaker, Roger - There Goes My Everything
TTITLE14=Whittaker, Roger - I Love You Because
TTITLE15=Whittaker, Roger - New World In The Morning
TTITLE16=Whittaker, Roger - Have I Told You Lately That I Love You
TTITLE17=Whittaker, Roger - I'd Fall In Love Tonight
TTITLE18=Whittaker, Roger - But She Loves Me
TTITLE19=Whittaker, Roger - Keep On Chasin' Rainbows
EXTD=
EXTT0=
EXTT1=
EXTT2=
EXTT3=
EXTT4=
EXTT5=
EXTT6=
EXTT7=
EXTT8=
EXTT9=
EXTT10=
EXTT11=
EXTT12=
EXTT13=
EXTT14=
EXTT15=
EXTT16=
EXTT17=
EXTT18=
EXTT19=
PLAYORDER=
